<?xml version="1.0" standalone="no"?><!DOCTYPE svg PUBLIC "-//W3C//DTD SVG 1.1//EN" "http://www.w3.org/Graphics/SVG/1.1/DTD/svg11.dtd"><svg t="1583288926963" class="icon" viewBox="0 0 1024 1024" version="1.1" xmlns="http://www.w3.org/2000/svg" p-id="9949" xmlns:xlink="http://www.w3.org/1999/xlink" width="200" height="200"><defs><style type="text/css"></style></defs><path d="M511.998969 511.998969m-511.998969 0a511.998969 511.998969 0 1 0 1023.997938 0 511.998969 511.998969 0 1 0-1023.997938 0Z" fill="#FDBF5E" p-id="9950"></path><path d="M980.798888 43.199049H478.400854v339.200709h126.398211v107.200468l169.601386-107.200468h206.398437z" fill="#F16051" p-id="9951"></path><path d="M596.800693 504.000596c-4.799436-3.200999-8.000435-8.000435-8.000435-14.40037V400.001128h-110.399404c-9.600935 0-16.00087-6.399936-16.00087-16.00087V43.199049c0-9.600935 6.399936-16.00087 16.00087-16.00087H980.800951c9.600935 0 16.00087 6.399936 16.00087 16.00087v340.799146c0 9.600935-6.399936 16.00087-16.00087 16.00087h-201.599001l-166.400387 103.999469c-4.801499 1.6005-11.201434 1.6005-16.00087 0.002062z m-102.401031-137.601708h110.399403c9.600935 0 16.00087 6.399936 16.000871 16.00087v76.799227l145.60008-91.199597c3.200999-1.6005 4.799436-3.200999 8.000435-3.200999h190.39963V59.199919H494.399662v307.198969z" fill="#193651" p-id="9952"></path><path d="M665.599484 323.199839H539.19921V103.999468h380.801322v219.200371h-163.20145l-91.199598 56.000983zM230.399742 318.400403c65.599855 35.200677 143.999581 35.200677 209.599436 0 19.199807 56.000983 63.999355 75.20079 83.199162 80.000225 0-113.600403-84.799662-204.8-188.79913-204.8s-188.79913 91.199597-188.799129 204.8c20.800306-6.399936 67.200354-25.599742 84.799661-80.000225z" fill="#FFFFFF" p-id="9953"></path><path d="M147.20058 414.399436c-3.200999 0-6.399936-1.6005-9.600934-3.200999-4.799436-3.200999-6.399936-8.000435-6.399936-12.799871 0-121.600838 92.800097-220.80087 204.8-220.80087s203.1995 97.599533 204.8 217.599871v3.200999c0 9.600935-6.399936 16.00087-16.00087 16.00087h-4.799436c-19.199807-6.399936-63.999355-23.999243-88.000661-73.60029-60.800419 27.200242-132.800209 27.200242-193.600628 0-23.999243 49.598985-68.800854 68.800854-88.000661 73.60029h-3.196874z m188.79913-204.8c-88.000661 0-160.000451 71.999791-171.199823 164.799887 17.599307-9.600935 40.000113-28.800741 51.199485-60.800419 1.6005-4.799436 4.799436-8.000435 9.600934-9.600934 4.799436-1.6005 9.600935-1.6005 12.799871 0 59.199919 31.999678 134.400709 31.999678 195.199066 0 4.799436-1.6005 9.600935-3.200999 12.799871 0 4.799436 1.6005 8.000435 4.799436 9.600934 9.600934 11.199372 33.600177 33.600177 51.199484 51.199485 60.800419-11.199372-92.800097-83.199162-164.799887-171.199823-164.799887z" fill="#193651" p-id="9954"></path><path d="M524.79884 398.400628c-19.199807-6.399936-65.599855-25.599742-83.199162-80.000225-65.599855 35.200677-143.999581 35.200677-209.599436 0-19.199807 56.000983-63.999355 75.20079-83.199162 80.000225v1.6005c1.6005 113.600403 84.799662 217.599871 188.799129 217.599871s185.600193-103.999468 187.200693-217.599871l-0.002062-1.6005z" fill="#E1E6E9" p-id="9955"></path><path d="M335.99971 633.599807c-110.399404 0-203.1995-105.599968-204.8-233.600742v-1.600499c0-6.399936 4.799436-12.799871 11.199372-16.00087 16.00087-4.799436 57.59942-22.400806 73.60029-70.399291 1.6005-4.799436 4.799436-8.000435 9.600934-9.600935 4.799436-1.6005 9.600935-1.6005 12.799871 0 59.199919 31.999678 134.400709 31.999678 195.199066 0 4.799436-1.6005 9.600935-3.200999 12.799871 0 4.799436 1.6005 8.000435 4.799436 9.600934 9.600935 16.00087 48.000548 57.59942 65.599855 73.60029 70.399291 6.399936 1.6005 11.199372 8.000435 11.199372 14.40037v3.200999C539.19921 527.999839 446.399114 633.599807 335.99971 633.599807zM163.199388 409.6c6.399936 103.999468 84.799662 192.000129 172.800322 192.000129s168.000886-89.599098 172.800322-192.000129c-22.400806-8.000435-56.000983-28.800741-76.799226-70.399291-60.800419 27.200242-132.800209 27.200242-193.600629 0-19.199807 41.59855-52.799984 62.398856-75.200789 70.399291z" fill="#193651" p-id="9956"></path><path d="M524.79884 646.399678l-40.000113-20.800306c-43.199049 35.200677-94.400596 57.59942-150.399517 57.59942s-107.200467-20.800306-150.399516-57.59942l-40.000113 20.800306c-63.999355 31.999678-103.999468 99.200032-103.999468 169.599323v164.799887h585.599259v-164.799887c3.200999-70.399291-36.799114-135.999146-100.800532-169.599323z" fill="#FFFFFF" p-id="9957"></path><path d="M628.800371 996.799758H43.199049c-9.600935 0-16.00087-6.399936-16.00087-16.00087v-164.799887c0-78.399726 43.199049-148.799017 111.999904-183.999694l40.000112-20.800306c6.399936-3.200999 12.799871-1.6005 17.599307 1.600499 41.600612 35.200677 89.599098 52.799984 139.200145 52.799984s97.599533-19.199807 139.200145-52.799984c4.799436-4.799436 11.199372-4.799436 17.599308-1.600499l40.000112 20.800306c68.800854 35.200677 111.999903 105.599968 111.999904 183.999694v164.799887c0.002062 9.600935-6.397873 16.00087-15.996745 16.00087z m-569.600452-31.999677h553.599581v-148.799018c0-65.599855-36.799114-126.400274-95.999033-155.201015l-30.399178-16.00087c-46.400048 35.200677-97.599533 54.400483-152.000016 54.400484s-105.599968-19.199807-152.000016-54.400484l-30.399178 16.00087c-59.199919 30.399178-95.999033 89.599098-95.999034 155.201015v148.799018h3.196874z" fill="#193651" p-id="9958"></path><path d="M103.999468 920.000532v-103.999469c0-49.598985 27.200242-94.400596 70.399291-116.799339l6.399936-3.200999c48.000548 30.399178 100.800532 46.400048 155.198952 46.400048s107.200467-16.00087 155.201016-46.400048l6.399935 3.200999c43.199049 22.400806 70.399291 67.200354 70.399291 116.799339v103.999469H103.999468z" fill="#4FBF9F" p-id="9959"></path><path d="M215.999372 823.999436h31.999677v30.399178h-31.999677zM320.000902 823.999436h31.999678v30.399178h-31.999678zM424.000371 823.999436h31.999677v30.399178h-31.999677zM843.199243 171.199823H617.598937c-9.600935 0-16.00087-6.399936-16.000871-16.00087 0-9.600935 6.399936-16.00087 16.000871-16.00087h225.600306c9.600935 0 16.00087 6.399936 16.00087 16.00087 0 9.600935-8.000435 16.00087-16.00087 16.00087zM748.800709 246.400612h-131.19971c-9.600935 0-16.00087-6.399936-16.00087-16.00087s6.399936-16.00087 16.00087-16.00087h131.19971c9.600935 0 16.00087 6.399936 16.00087 16.00087s-6.401998 16.00087-16.00087 16.00087z" fill="#193651" p-id="9960"></path></svg>